<svg width="25" height="30" viewBox="0 0 25 30" fill="none" xmlns="http://www.w3.org/2000/svg">
<path d="M12.4076 29.168C5.5586 29.1592 0.00744456 22.6346 0 14.5846V14.293C0.136484 6.27941 5.75092 -0.103723 12.5689 0.00127703C19.3894 0.109194 24.8574 6.66441 24.8127 14.6794C24.768 22.6959 19.2281 29.168 12.4076 29.168ZM12.3877 26.2513H12.4076C15.0393 26.2482 17.5622 25.0169 19.4217 22.828C21.2812 20.6392 22.3251 17.672 22.3238 14.5788C22.3224 11.4856 21.2761 8.51964 19.4147 6.33298C17.5534 4.14632 15.0294 2.91795 12.3977 2.91795C9.76597 2.91795 7.24199 4.14632 5.38063 6.33298C3.51927 8.51964 2.47291 11.4856 2.4716 14.5788C2.47028 17.672 3.51412 20.6392 5.37361 22.828C7.23311 25.0169 9.75605 26.2482 12.3877 26.2513ZM13.6484 23.3346H11.1668V20.418H13.6484V23.3346ZM13.6484 18.9596H11.1668C11.1476 18.027 11.3411 17.1054 11.7273 16.2904C12.1135 15.4754 12.6783 14.7968 13.363 14.325C14.1819 13.5871 14.8891 12.9513 14.8891 11.668C14.8891 10.8944 14.6277 10.1525 14.1623 9.60556C13.6969 9.05858 13.0657 8.75128 12.4076 8.75128C11.7495 8.75128 11.1183 9.05858 10.6529 9.60556C10.1875 10.1525 9.92608 10.8944 9.92608 11.668H7.44456V11.5367C7.45937 9.9896 7.99646 8.51279 8.93768 7.43113C9.8789 6.34948 11.1472 5.75159 12.4634 5.76899C13.7797 5.7864 15.0362 6.41767 15.9565 7.52394C16.8768 8.63021 17.3854 10.1209 17.3706 11.668C17.3268 12.4439 17.1289 13.1971 16.7928 13.8669C16.4566 14.5368 15.9916 15.1047 15.4351 15.5252C14.9318 15.8966 14.5085 16.3999 14.1985 16.9958C13.8885 17.5917 13.7002 18.2639 13.6484 18.9596Z" fill="#0099FF"/>
</svg>
