<svg width="26" height="26" viewBox="0 0 26 26" fill="none" xmlns="http://www.w3.org/2000/svg">
<path d="M24.2658 21.7344L13.7033 3.45312C13.5459 3.18145 13.2742 3.04688 13 3.04688C12.7258 3.04688 12.4516 3.18145 12.2967 3.45312L1.73418 21.7344C1.42188 22.2777 1.81289 22.9531 2.4375 22.9531H23.5625C24.1871 22.9531 24.5781 22.2777 24.2658 21.7344ZM12.1875 10.5625C12.1875 10.4508 12.2789 10.3594 12.3906 10.3594H13.6094C13.7211 10.3594 13.8125 10.4508 13.8125 10.5625V15.2344C13.8125 15.3461 13.7211 15.4375 13.6094 15.4375H12.3906C12.2789 15.4375 12.1875 15.3461 12.1875 15.2344V10.5625ZM13 19.5C12.6811 19.4935 12.3774 19.3622 12.1542 19.1344C11.9309 18.9065 11.8059 18.6002 11.8059 18.2812C11.8059 17.9623 11.9309 17.656 12.1542 17.4281C12.3774 17.2003 12.6811 17.069 13 17.0625C13.3189 17.069 13.6226 17.2003 13.8458 17.4281C14.0691 17.656 14.1941 17.9623 14.1941 18.2812C14.1941 18.6002 14.0691 18.9065 13.8458 19.1344C13.6226 19.3622 13.3189 19.4935 13 19.5V19.5Z" fill="#FF0000"/>
</svg>
