<svg width="36" height="36" viewBox="0 0 36 36" fill="none" xmlns="http://www.w3.org/2000/svg">
<path d="M29.25 13.5C28.0905 13.5309 26.9659 13.1011 26.1225 12.3048C25.2791 11.5084 24.7856 10.4103 24.75 9.25089C24.771 8.4231 25.0256 7.61811 25.4846 6.92889L28.3163 2.71577C28.425 2.57091 28.566 2.45335 28.7281 2.37238C28.8902 2.29142 29.0688 2.24927 29.25 2.24927C29.4312 2.24927 29.6098 2.29142 29.7719 2.37238C29.934 2.45335 30.075 2.57091 30.1838 2.71577L32.9794 6.87377C33.4572 7.57667 33.7245 8.40133 33.75 9.25089C33.7144 10.4103 33.2209 11.5084 32.3775 12.3048C31.5341 13.1011 30.4096 13.5309 29.25 13.5ZM29.25 5.35839L27.387 8.12927C27.1542 8.45885 27.02 8.84787 27 9.25089C27.0653 9.80177 27.3304 10.3095 27.7451 10.678C28.1598 11.0464 28.6953 11.25 29.25 11.25C29.8047 11.25 30.3402 11.0464 30.7549 10.678C31.1696 10.3095 31.4347 9.80177 31.5 9.25089C31.4748 8.82603 31.3284 8.41728 31.0781 8.07302L29.25 5.35839ZM26.4375 33.75H9.5625C7.75019 33.752 6.0018 33.0804 4.65676 31.8658C3.31172 30.6511 2.46599 28.98 2.28374 27.1769C2.10149 25.3738 2.59574 23.5673 3.67052 22.108C4.74531 20.6488 6.32395 19.641 8.1 19.2803C8.57938 17.0098 9.82462 14.9731 11.627 13.5115C13.4294 12.0499 15.6795 11.2522 18 11.2522C20.3205 11.2522 22.5706 12.0499 24.373 13.5115C26.1754 14.9731 27.4206 17.0098 27.9 19.2803C29.6761 19.641 31.2547 20.6488 32.3295 22.108C33.4043 23.5673 33.8985 25.3738 33.7163 27.1769C33.534 28.98 32.6883 30.6511 31.3432 31.8658C29.9982 33.0804 28.2498 33.752 26.4375 33.75ZM18 13.5C16.0793 13.5018 14.2254 14.2055 12.7873 15.4787C11.3492 16.7519 10.426 18.5068 10.1914 20.4131L10.0789 21.3266L9.162 21.3986C7.85616 21.4981 6.63978 22.1001 5.76879 23.0781C4.8978 24.0561 4.4401 25.3338 4.49198 26.6424C4.54386 27.951 5.10129 29.1885 6.04697 30.0945C6.99266 31.0004 8.25289 31.5043 9.5625 31.5H26.4375C27.7471 31.5043 29.0073 31.0004 29.953 30.0945C30.8987 29.1885 31.4561 27.951 31.508 26.6424C31.5599 25.3338 31.1022 24.0561 30.2312 23.0781C29.3602 22.1001 28.1438 21.4981 26.838 21.3986L25.9211 21.3266L25.8098 20.4131C25.5747 18.5068 24.6511 16.752 23.2129 15.4789C21.7746 14.2058 19.9208 13.502 18 13.5Z" fill="#099539"/>
</svg>
