<?xml version="1.0" standalone="no"?><svg xmlns="http://www.w3.org/2000/svg" viewBox="0 0 1440 320"><path fill="#0099ff" fill-opacity="1" d="M0,256L30,229.3C60,203,120,149,180,117.3C240,85,300,75,360,90.7C420,107,480,149,540,181.3C600,213,660,235,720,240C780,245,840,235,900,192C960,149,1020,75,1080,69.3C1140,64,1200,128,1260,154.7C1320,181,1380,171,1410,165.3L1440,160L1440,320L1410,320C1380,320,1320,320,1260,320C1200,320,1140,320,1080,320C1020,320,960,320,900,320C840,320,780,320,720,320C660,320,600,320,540,320C480,320,420,320,360,320C300,320,240,320,180,320C120,320,60,320,30,320L0,320Z"></path></svg>